<svg width="24" height="24" viewBox="0 0 24 24" fill="none" xmlns="http://www.w3.org/2000/svg">
<g clip-path="url(#clip0_55272_41472)">
<path d="M2 22.2817L6.23317 10.2072C8.19887 4.60032 9.18172 1.79688 10.7792 1.79688C12.3767 1.79688 13.3595 4.60032 15.3252 10.2072L16 12.5M5.658 12.0393H15.9004" stroke="#444444" stroke-width="2.1948" stroke-linecap="round" stroke-linejoin="round"/>
<path d="M19.6798 17.8985C19.6798 18.8812 18.8831 19.6778 17.9004 19.6778C16.9177 19.6778 16.1211 18.8812 16.1211 17.8985C16.1211 16.9158 16.9177 16.1191 17.9004 16.1191C18.8831 16.1191 19.6798 16.9158 19.6798 17.8985Z" stroke="#444444" stroke-width="1.30727"/>
<path d="M22.4793 18.9595C22.7446 18.8879 22.8773 18.8521 22.9297 18.7837C22.9821 18.7153 22.9821 18.6053 22.9821 18.3852V17.4021C22.9821 17.182 22.9821 17.072 22.9297 17.0036C22.8773 16.9352 22.7446 16.8994 22.4793 16.8278C21.4878 16.5604 20.8672 15.5238 21.1231 14.5388C21.1935 14.2678 21.2286 14.1324 21.195 14.053C21.1614 13.9735 21.065 13.9188 20.8722 13.8093L19.9954 13.3114C19.8061 13.204 19.7115 13.1503 19.6266 13.1617C19.5417 13.1732 19.4459 13.2687 19.2542 13.4599C18.5124 14.2 17.285 14.1999 16.5431 13.4598C16.3515 13.2687 16.2557 13.1731 16.1708 13.1617C16.0858 13.1502 15.9912 13.204 15.802 13.3114L14.9252 13.8092C14.7323 13.9187 14.6359 13.9734 14.6023 14.0529C14.5687 14.1323 14.6039 14.2678 14.6742 14.5387C14.93 15.5238 14.309 16.5605 13.3173 16.8279C13.0519 16.8994 12.9193 16.9352 12.8669 17.0036C12.8145 17.072 12.8145 17.182 12.8145 17.4021V18.3852C12.8145 18.6053 12.8145 18.7153 12.8669 18.7837C12.9193 18.8521 13.0519 18.8879 13.3173 18.9595C14.3088 19.2269 14.9294 20.2635 14.6735 21.2485C14.6031 21.5195 14.5679 21.6549 14.6015 21.7344C14.6351 21.8138 14.7315 21.8686 14.9244 21.978L15.8012 22.4759C15.9904 22.5833 16.085 22.637 16.17 22.6256C16.2549 22.6142 16.3507 22.5185 16.5423 22.3274C17.2845 21.5867 18.5128 21.5867 19.2551 22.3273C19.4467 22.5185 19.5424 22.6141 19.6274 22.6255C19.7123 22.637 19.8069 22.5833 19.9962 22.4758L20.873 21.978C21.0659 21.8685 21.1623 21.8138 21.1958 21.7343C21.2294 21.6548 21.1943 21.5194 21.1239 21.2485C20.8678 20.2635 21.4879 19.2269 22.4793 18.9595Z" stroke="#444444" stroke-width="1.30727" stroke-linecap="round"/>
</g>
<defs>
<clipPath id="clip0_55272_41472">
<rect width="24" height="24" fill="white"/>
</clipPath>
</defs>
</svg>
